# xmcd
#
# Track frame offsets:
#	150
#	14821
#	35971
#	53042
#	71464
#	93807
#	107061
#	125402
#	141122
#	160140
#	181344
#	201723
#	215429
#
# Disc length: 3193 seconds
#
# Revision: 1
# Processed by: cddbd v1.5.2PL0 Copyright (c) Steve Scherf et al.
# Submitted via: audiograbber 1.83.01
#
DISCID=c20c770d
DTITLE=Nicholas Barron - As I Am
DYEAR=2007
DGENRE=Blues
TTITLE0=Devil Dog
TTITLE1=Ramón
TTITLE2=I'm Not Superman
TTITLE3=Gotta Serve Somebody
TTITLE4=Travelers
TTITLE5=Concrete Thought
TTITLE6=This Train
TTITLE7=Forgive Forget
TTITLE8=Blink
TTITLE9=In Spite Of Myself
TTITLE10=The War Continues
TTITLE11=Antidote
TTITLE12=Hallelujah
EXTD=
EXTT0=
EXTT1=
EXTT2=
EXTT3=
EXTT4=
EXTT5=
EXTT6=
EXTT7=
EXTT8=
EXTT9=
EXTT10=
EXTT11=
EXTT12=
PLAYORDER=
